# xmcd CD database file
#
# Track frame offsets:
#	150
#	16745
#	24355
#	46480
#	59742
#	76465
#	87729
#	103305
#	117210
#	137407
#	161427
#
# Disc length: 2317 seconds
#
# Revision: 0
# Processed by: cddbd v1.5.2PL0 Copyright (c) Steve Scherf et al.
# Submitted via: CDex 1.70beta2
#
DISCID=8c090b0b
DTITLE=Roxanne Breon - The Sun's Always Shinin'
DYEAR=1996
DGENRE=Country
TTITLE0=The Sun's Always Shinin'
TTITLE1=Hush Now Wind
TTITLE2=The Price
TTITLE3=Lord I'm A Sinner
TTITLE4=Just Another Lonely Night
TTITLE5=Makin' Plans For Leavin'
TTITLE6=I'm Tired of Your Lyin'
TTITLE7=Broke The Chains
TTITLE8=Already Gone
TTITLE9=The Prodigal
TTITLE10=It Comes to Earth Again
EXTD=YEAR: 1996
EXTT0=
EXTT1=
EXTT2=
EXTT3=
EXTT4=
EXTT5=
EXTT6=
EXTT7=
EXTT8=
EXTT9=
EXTT10=
PLAYORDER=
